<svg width="104" height="36" viewBox="0 0 104 36" fill="none" xmlns="http://www.w3.org/2000/svg">
<g id="EncoreLogo 1">
<g id="Group">
<path id="Vector" d="M35.5519 14.2889C33.867 14.2889 32.4813 14.9775 31.3947 16.3519L31.454 16.0613C31.4935 15.906 31.5161 15.7903 31.5274 15.7113C31.5358 15.6351 31.5415 15.5476 31.5415 15.4488C31.5415 15.2372 31.4681 15.0566 31.3242 14.9098C31.1774 14.763 30.9714 14.6925 30.7005 14.6925H28.4624C27.9572 14.6925 27.6101 14.7659 27.4154 14.9098C27.2206 15.0566 27.0767 15.3501 26.9779 15.796L26.357 18.7395C25.5668 22.2814 23.213 24.4376 22.5696 24.875C21.9261 25.3153 19.4369 27.2626 16.1743 27.0961C14.8761 27.0312 13.7585 26.7856 12.8328 25.8797C11.8139 24.8835 11.6644 23.8618 11.6531 22.8487C11.6418 21.844 11.9918 20.9747 12.3812 20.3623C12.7707 19.7499 13.2928 19.256 13.9532 18.8835C18.2684 21.9173 21.9204 20.2833 21.4378 18.192C21.0568 16.541 18.4858 15.5533 15.0934 16.2645C14.7604 15.8891 14.4753 15.4347 14.2947 14.8816C13.925 13.764 14.1338 12.6069 14.1649 12.5222C15.4659 13.6737 16.9194 14.32 18.5253 14.4639C20.1311 14.6078 21.6947 14.509 22.8066 13.9305C23.8452 13.3915 24.6665 12.2061 24.7116 11.0688C24.7935 8.986 23.1142 7.76399 22.3918 7.35477C21.5846 6.89757 20.5319 6.61253 19.2337 6.49682C16.8178 6.28233 14.6644 6.63228 12.7735 7.54103C12.7368 7.55797 12.5506 7.63699 12.511 7.65674C12.3191 7.41686 12.1075 7.14875 11.8535 6.84395C11.5995 6.54197 11.2721 6.14122 10.877 5.63887C10.479 5.13934 10.1291 4.87687 9.82991 4.84865C9.40092 4.81196 9.16103 5.09136 9.10741 5.68967C9.07636 6.03398 9.19772 6.55044 9.47148 7.2447C9.74524 7.93896 10.1206 8.60782 10.6032 9.25693C9.94562 10.1036 9.57026 11.0547 9.47712 12.1045C9.28239 14.3115 9.9174 16.0302 11.3821 17.2607C8.4978 18.0199 6.45449 19.9333 6.18073 22.9954C6.07631 24.1723 6.25693 25.3124 6.64076 26.3171C7.59468 28.8261 10.0867 30.5589 14.2072 30.8214C18.6269 31.1036 22.3664 28.637 23.9666 27.1751C24.2939 26.8759 24.5423 26.6248 24.737 26.4018L24.1641 29.1083C24.1444 29.1873 24.1303 29.2635 24.1218 29.3397C24.1105 29.4187 24.1077 29.4865 24.1077 29.5429C24.1077 30.0848 24.3786 30.3557 24.9205 30.3557H27.2742C27.7766 30.3557 28.1322 30.2795 28.3354 30.1243C28.5386 29.9691 28.6797 29.6784 28.7559 29.2522L30.4719 21.2005C30.6666 20.2889 31.0109 19.5777 31.5048 19.0641C31.9987 18.5504 32.5942 18.2936 33.2913 18.2936C33.7936 18.2936 34.1916 18.4347 34.4823 18.7141C34.773 18.9963 34.9169 19.3576 34.9169 19.8035C34.9169 19.8995 34.9056 20.0208 34.8887 20.1676C34.8689 20.3115 34.8407 20.4921 34.8012 20.7038L33.0288 29.1027C33.0091 29.1817 32.995 29.2579 32.9865 29.3341C32.9752 29.4131 32.9724 29.4808 32.9724 29.5373C32.9724 30.0791 33.2433 30.3501 33.7852 30.3501H36.1389C36.6413 30.3501 36.9969 30.2739 37.2001 30.1186C37.4033 29.9634 37.5444 29.6727 37.6206 29.2466L39.4212 20.7602C39.5172 20.3736 39.5821 20.0152 39.6103 19.685C39.6385 19.3548 39.6526 19.0641 39.6526 18.8129C39.6526 17.399 39.2886 16.2899 38.5633 15.4855C37.8351 14.6897 36.8304 14.2889 35.5519 14.2889ZM18.6861 18.0509C19.3437 18.2795 18.5874 19.3999 16.5666 17.8505C16.5638 17.8477 17.6334 17.6868 18.6861 18.0509ZM18.7144 9.64075C20.086 9.7621 20.9214 10.3322 20.8508 11.0998C20.7887 11.8054 19.9336 12.0989 18.7256 11.9916C17.5149 11.8844 16.3634 11.4272 15.2712 10.6172C16.18 9.85242 17.3427 9.5194 18.7144 9.64075Z" fill="#F1BB30"/>
<path id="Vector_2" d="M53.7442 15.6407C52.6491 14.7404 51.1618 14.2888 49.2822 14.2888C47.888 14.2888 46.6857 14.5597 45.6782 15.1016C44.6706 15.6435 43.8578 16.3744 43.2369 17.2945C42.616 18.2145 42.1701 19.2672 41.8992 20.4469L41.4928 22.2474C41.2613 23.2352 41.1428 24.1947 41.1428 25.1232C41.1428 26.1703 41.3319 27.1185 41.7101 27.9708C42.0883 28.8232 42.7063 29.5005 43.5699 30.0057C44.4307 30.508 45.5794 30.762 47.0131 30.762C49.1241 30.762 50.8401 30.2399 52.1581 29.1929C52.6435 28.8062 53.0386 28.366 53.349 27.8721C53.6595 27.3782 53.8966 26.8928 54.0603 26.4186C54.2239 25.9445 54.3086 25.5522 54.3086 25.2418C54.3086 24.7197 54.0264 24.4572 53.4648 24.4572H51.1985C50.7723 24.4572 50.476 24.4967 50.3123 24.5729C50.1486 24.6519 49.9962 24.8551 49.8607 25.1825C49.6293 25.7836 49.333 26.2521 48.9746 26.5908C48.6161 26.9295 48.1166 27.0988 47.4788 27.0988C46.7817 27.0988 46.3019 26.9012 46.0394 26.5033C45.7769 26.1054 45.6471 25.6284 45.6471 25.064C45.6471 24.8523 45.6612 24.6378 45.6894 24.4233C45.7177 24.2117 45.7515 23.9972 45.791 23.7827L46.2849 21.3697C46.5361 20.1675 46.872 19.2954 47.2868 18.7535C47.7045 18.2117 48.269 17.9407 48.9858 17.9407C49.6067 17.9407 50.0498 18.0875 50.3236 18.3782C50.5945 18.6689 50.7498 19.0753 50.7893 19.5974C50.8288 20.0038 50.9247 20.2719 51.08 20.3961C51.2352 20.5231 51.4976 20.5851 51.8645 20.5851H53.9276C54.509 20.5851 54.8956 20.4948 55.0904 20.3086C55.2851 20.1251 55.3811 19.7216 55.3811 19.1035C55.3867 17.698 54.8392 16.5409 53.7442 15.6407Z" fill="#F1BB30"/>
<path id="Vector_3" d="M64.9005 14.2888C62.7895 14.2888 61.0679 14.8363 59.7414 15.9313C58.415 17.0264 57.4978 18.7366 56.9954 21.0621L56.7329 22.2813C56.5975 22.8824 56.5043 23.3961 56.4563 23.8222C56.4084 24.2484 56.383 24.714 56.383 25.2164C56.383 26.9605 56.9305 28.3208 58.0255 29.3001C59.1206 30.2794 60.6079 30.7677 62.4875 30.7677C64.5985 30.7677 66.3229 30.2201 67.6607 29.1251C68.9984 28.0301 69.9072 26.3199 70.3926 23.9944L70.6551 22.7752C70.7906 22.1543 70.8837 21.6322 70.9317 21.206C70.9797 20.7799 71.0051 20.3255 71.0051 19.8401C71.0051 18.096 70.4632 16.7357 69.3766 15.7564C68.2929 14.7771 66.7999 14.2888 64.9005 14.2888ZM66.3258 21.4375L65.7726 23.9944C65.3267 26.0856 64.3474 27.1327 62.8375 27.1327C61.5392 27.1327 60.8901 26.4158 60.8901 24.9821C60.8901 24.6519 60.9494 24.1976 61.0651 23.6162L61.6182 21.0593C62.0642 18.968 63.0435 17.921 64.5534 17.921C65.8516 17.921 66.5007 18.6378 66.5007 20.0715C66.5007 20.4017 66.4415 20.8561 66.3258 21.4375Z" fill="#F1BB30"/>
<path id="Vector_4" d="M88.1333 23.7629H91.2999C93.4307 23.7629 95.0817 23.3029 96.2557 22.3829C97.427 21.4629 98.014 20.207 98.014 18.6181C98.014 17.3001 97.5258 16.2502 96.5464 15.4657C95.5671 14.6811 94.1475 14.2888 92.2877 14.2888C90.2331 14.2888 88.5087 14.8448 87.1145 15.9596C85.7203 17.0743 84.7607 18.8693 84.2386 21.35L83.9761 22.6002C83.7616 23.6077 83.6572 24.5193 83.6572 25.3321C83.6572 26.4186 83.8604 27.3669 84.2668 28.1797C84.6732 28.9925 85.3308 29.6275 86.2424 30.0847C87.154 30.5391 88.3647 30.7677 89.8746 30.7677C90.9584 30.7677 91.9321 30.6181 92.7957 30.3161C93.6565 30.0169 94.3987 29.6134 95.0196 29.111C95.5812 28.6651 95.9792 28.1628 96.2106 27.6011C96.442 27.0395 96.5606 26.5936 96.5606 26.2634C96.5606 25.778 96.2501 25.5381 95.6292 25.5381H93.2755C92.965 25.5381 92.7195 25.5804 92.5332 25.6679C92.3498 25.7554 92.1804 25.9248 92.0252 26.1759C91.774 26.5456 91.4833 26.7912 91.1531 26.9182C90.8229 27.0452 90.4363 27.1073 89.9903 27.1073C89.4287 27.1073 88.9546 26.9577 88.5651 26.6557C88.1785 26.3566 87.9837 25.9135 87.9837 25.3349C87.9837 24.889 88.0232 24.4233 88.0994 23.9407L88.1333 23.7629ZM89.8775 18.5165C90.3431 18.0621 90.981 17.8335 91.7966 17.8335C92.3582 17.8335 92.7646 17.9464 93.0186 18.1665C93.2698 18.3895 93.3968 18.6943 93.3968 19.0809C93.3968 19.5663 93.2218 19.9473 92.8747 20.2296C92.5247 20.5118 91.9744 20.6501 91.218 20.6501H88.805C89.0534 19.6849 89.4118 18.9737 89.8775 18.5165Z" fill="#F1BB30"/>
<path id="Vector_5" d="M82.7851 14.6952C81.9723 14.6952 81.2442 14.8504 80.6064 15.1609C79.9657 15.4713 79.3956 15.9934 78.8904 16.73L79.0372 16.0611C79.0767 15.9059 79.0993 15.7902 79.1106 15.7112C79.119 15.635 79.1247 15.5475 79.1247 15.4487C79.1247 15.2371 79.0513 15.0564 78.9074 14.9097C78.7606 14.7629 78.5546 14.6924 78.2836 14.6924H76.0456C75.5404 14.6924 75.1933 14.7658 74.9985 14.9097C74.8038 15.0536 74.6599 15.35 74.5611 15.7959L71.7417 29.1054C71.7021 29.2606 71.6824 29.4243 71.6824 29.5992C71.6824 30.1044 71.9618 30.3556 72.5263 30.3556H74.8518C75.3541 30.3556 75.7098 30.2794 75.913 30.1242C76.1162 29.969 76.2573 29.6783 76.3335 29.2521L78.1058 20.9125C78.2611 20.2719 78.6477 19.7752 79.2686 19.4167C79.8895 19.0583 80.7023 18.8805 81.7099 18.8805L82.6243 18.8777C83.1605 17.2606 83.8774 15.9257 84.7776 14.8786C83.8774 14.698 83.0928 14.6952 82.7851 14.6952Z" fill="#F1BB30"/>
</g>
</g>
</svg>
